<svg t="1660223867537" class="icon" viewBox="0 0 1024 1024" version="1.1" xmlns="http://www.w3.org/2000/svg" p-id="2570" data-darkreader-inline-fill="" width="200" height="200"><path d="M950.6 515.4c0.4-6 1.4-11.2 2.5-17.1 0 0 19.8-47.1-11.3-80.4-31.1-33.3-43.1-59.4-114.1-65-70.9-5.6-114-3-155 28.9-35.6 27.6-88.9 85.2-102.5 100.1-5-14.8-16.2-26.7-30.3-32.8 12.4-10.1 76.7-62.7 107.5-97.9 34.2-39.1 39.2-82 37.7-153.1s-26.9-84.6-58.3-117.6-79.6-15.9-79.6-15.9c-6.3 0.9-12 1.6-18.6 1.6v0.1c-6-0.4-11.3-1.3-17.1-2.3 0 0-47.4-19.1-80.2 12.5-32.8 31.6-58.8 44-63.3 115s-1.3 114 31.2 154.6c28.3 35.3 87.2 88.3 101.9 101.3-8.5 2.8-16.1 7.5-22.3 13.7-6.4 5.6-11.4 12.7-14.7 20.8-12-15.5-60.8-77.8-94.2-108.4-38.3-35.1-81-41.2-152.1-41.5-71.1-0.3-85.3 24.8-119 55.4-33.7 30.6-17.9 79.2-17.9 79.2 0.7 5.9 1.2 11.3 1.2 17.2H82c-0.5 6.5-1.6 12.1-2.9 18.4 0 0-20.2 46.9 10.5 80.5 30.8 33.6 42.5 59.8 113.4 66.1 70.9 6.3 114 4.1 155.3-27.3 37.2-28.3 94.1-88.9 105-100.6 5.2 14.5 16.3 26.4 30.7 32.4-15.8 12.6-76.8 61.9-106.8 95.5-34.6 38.8-40 81.6-39.3 152.7 0.8 71.1 26.1 84.9 57.2 118.2s79.4 16.7 79.4 16.7c5.9-0.7 11.2-1.4 17.2-1.4v0.1c6.5 0.4 12.1 1.4 18.4 2.6 0 0 47.2 19.6 80.3-11.7 33.1-31.3 59.2-43.4 64.4-114.4 5.2-71 2.4-114-29.6-154.9-28.1-35.8-87-89.8-101.1-102.5 7.7-2.8 14.7-7.3 20.4-13.1 5.9-5.2 10.6-11.6 13.8-18.9C580 537 629.9 599.5 663.8 630c38.6 34.8 81.4 40.4 152.5 40 71.1-0.4 85-25.7 118.5-56.6C968.3 582.5 952 534 952 534c-0.8-6.3-1.4-12-1.4-18.6z" p-id="2571"></path></svg>
